<svg width="24" height="24" viewBox="0 0 24 24" fill="none" xmlns="http://www.w3.org/2000/svg">
<g clip-path="url(#clip0_5829_27984)">
<path d="M9.72926 10.5208C9.72926 10.957 9.83059 11.3703 10.0111 11.7376C9.62318 12.2348 9.38172 12.8515 9.34926 13.5236C8.6043 12.7414 8.14593 11.6838 8.14593 10.5216C8.14593 7.82124 10.6175 5.68691 13.4176 6.26166C15.0659 6.60049 16.4014 7.92811 16.7529 9.57399C16.859 10.0712 16.8788 10.558 16.825 11.0235C16.7791 11.4178 16.4331 11.7091 16.0357 11.7091H16.0001C15.5314 11.7091 15.2021 11.2919 15.2535 10.8264C15.2883 10.5137 15.2701 10.1852 15.1902 9.85028C14.9543 8.85832 14.1452 8.05478 13.1516 7.82599C11.3419 7.41037 9.72847 8.78153 9.72847 10.5216L9.72926 10.5208ZM6.64968 9.49561C6.86659 8.23449 7.4833 7.08499 8.43963 6.18803C9.65009 5.05357 11.235 4.49307 12.8967 4.59599C16.0262 4.79866 18.4732 7.5402 18.4368 10.8224C18.4218 12.1968 17.2707 13.2909 15.8971 13.2909H13.9924C13.7992 12.6346 13.1991 12.1517 12.4803 12.1517C11.6055 12.1517 10.897 12.8602 10.897 13.735C10.897 14.6098 11.6055 15.3183 12.4803 15.3183C12.9062 15.3183 13.2918 15.1481 13.576 14.8742H15.8971C18.1288 14.8742 19.9885 13.0969 20.0201 10.866C20.0787 6.7327 16.9738 3.27311 12.9988 3.01661C10.8898 2.87966 8.8893 3.59611 7.35743 5.03378C6.17072 6.14607 5.38143 7.61857 5.09722 9.2027C5.01093 9.68403 5.39172 10.1258 5.88018 10.1258C6.25384 10.1258 6.58713 9.86532 6.64968 9.49641V9.49561ZM12.5001 16.4583C9.57488 16.4583 7.04393 18.2728 6.20238 20.9724C6.07176 21.3896 6.3053 21.8337 6.72251 21.9644C7.13893 22.0902 7.58305 21.8607 7.71368 21.4442C8.3383 19.4413 10.3056 18.0417 12.4993 18.0417C14.693 18.0417 16.6611 19.4413 17.2849 21.4442C17.391 21.7831 17.7029 22 18.041 22C18.1193 22 18.1977 21.9881 18.2769 21.9644C18.6941 21.8337 18.9268 21.3896 18.797 20.9724C17.9555 18.2728 15.4245 16.4583 12.4993 16.4583H12.5001Z" fill="black"/>
</g>
<defs>
<clipPath id="clip0_5829_27984">
<rect width="19" height="19" fill="white" transform="translate(3 3)"/>
</clipPath>
</defs>
</svg>
