<svg width="54" height="54" viewBox="0 0 54 54" fill="none" xmlns="http://www.w3.org/2000/svg">
<circle cx="27" cy="27" r="26" fill="white" stroke="url(#paint0_linear_4934_9768)" stroke-width="2"/>
<g opacity="0.9">
<path d="M35.2677 23.797C34.8126 23.797 34.3814 23.9422 34.0252 24.1975C33.6691 24.452 33.388 24.816 33.232 25.2537L30.8499 31.4423C30.8476 31.4483 30.8454 31.4545 30.8433 31.4605L30.8425 31.4613L30.5175 32.3063C30.467 32.4482 30.4434 32.5915 30.4434 32.7313C30.4434 33.3869 30.9626 33.9667 31.6551 33.9667C32.5659 33.9667 33.3793 33.3846 33.6908 32.5099L36.0074 26.4909C36.0074 26.4909 36.0074 26.4908 36.0074 26.4907L36.4051 25.4572C36.4555 25.3154 36.4791 25.172 36.479 25.0323C36.4788 24.3766 35.9601 23.7969 35.2675 23.7969L35.2677 23.797Z" fill="black"/>
<path d="M32.0279 23.8511C32.1963 23.3776 32.2797 22.9337 32.2798 22.5264C32.2803 20.8789 30.9191 19.8281 28.3172 19.8281H20.7076C20.379 19.8281 20.0607 19.9497 19.8125 20.1701C19.4861 20.4604 19.3403 20.8389 19.3403 21.2112C19.3403 21.9254 19.8779 22.6178 20.7076 22.6178H27.6227C28.4263 22.6178 28.8525 22.9155 28.8524 23.4215C28.8524 23.5194 28.8364 23.6251 28.8041 23.7379C28.7952 23.7698 28.7847 23.8018 28.7729 23.8344C28.5097 24.5715 27.7528 25.0693 26.7491 25.0693H22.8332H18.2682C17.7477 25.0693 17.6683 25.2745 17.4481 25.8292L15.0236 32.0939C14.9106 32.4108 14.5961 33.211 14.4206 33.6563C14.4094 33.6846 14.4043 33.7135 14.4043 33.7416C14.4046 33.8604 14.4983 33.9663 14.6251 33.9663C15.1025 33.9655 15.9671 33.9655 16.3061 33.9655H16.6318C17.205 33.9655 17.7173 33.5985 17.9136 33.0475L19.3805 29.3892L19.6459 28.7273C19.8415 28.1764 20.3545 27.8094 20.9277 27.8094H25.4608C28.7217 27.8094 31.1834 26.2227 32.028 23.8509L32.0279 23.8511Z" fill="black"/>
<path d="M37.0973 19.9945C36.9069 19.889 36.6877 19.8281 36.4498 19.8281H36.1078C35.5345 19.8281 35.0223 20.1952 34.826 20.7462C34.7687 20.9061 34.7421 21.068 34.7422 21.2257C34.7422 21.4822 34.813 21.7285 34.9382 21.9408C35.0743 22.171 35.2736 22.361 35.5159 22.4804C35.6929 22.5677 35.8929 22.6179 36.1078 22.6179H36.4498C37.0238 22.6179 37.5361 22.2509 37.7324 21.7C37.7888 21.5404 37.8156 21.3793 37.8156 21.222C37.8156 20.7076 37.5324 20.2349 37.0974 19.9948L37.0973 19.9945Z" fill="black"/>
</g>
<defs>
<linearGradient id="paint0_linear_4934_9768" x1="27" y1="0" x2="27" y2="54" gradientUnits="userSpaceOnUse">
<stop offset="0.08" stop-color="#2F1583"/>
<stop offset="0.54" stop-color="#9747FF"/>
<stop offset="1" stop-color="#F7B4F2"/>
</linearGradient>
</defs>
</svg>
