<svg width="17" height="21" viewBox="0 0 17 21" fill="none" xmlns="http://www.w3.org/2000/svg">
<path d="M11.8394 19.5316C10.649 18.9364 6.38332 19.2836 4.39929 19.5316C-3.33831 18.3412 2.16729 10.6036 5.88729 6.88364L3.65537 4.65164C2.46497 4.05644 4.15137 2.91564 5.14337 2.41964V1.67564C5.14337 1.26474 5.47647 0.931641 5.88737 0.931641H10.3514C10.7623 0.931641 11.0954 1.26474 11.0954 1.67564V3.16364C12.2858 3.16364 12.5834 4.15564 12.5834 4.65164L10.3514 6.88364C20.7674 17.2996 13.3274 20.2756 11.8394 19.5316Z" stroke="#4C8BFF" stroke-width="0.744"/>
<path d="M4.95312 12.6192C4.95312 12.2215 5.06825 11.9102 5.29849 11.6852C5.53397 11.4602 5.83485 11.3477 6.20115 11.3477C6.56744 11.3477 6.86571 11.4602 7.09596 11.6852C7.33143 11.9102 7.44917 12.2215 7.44917 12.6192C7.44917 13.0222 7.33143 13.3361 7.09596 13.5611C6.86571 13.7861 6.56744 13.8986 6.20115 13.8986C5.83485 13.8986 5.53397 13.7861 5.29849 13.5611C5.06825 13.3361 4.95312 13.0222 4.95312 12.6192ZM9.99231 11.4418L6.90758 16.9363H5.84008L8.91697 11.4418H9.99231ZM6.1933 12.007C5.90549 12.007 5.76159 12.2111 5.76159 12.6192C5.76159 13.0326 5.90549 13.2393 6.1933 13.2393C6.33458 13.2393 6.44447 13.1896 6.52296 13.0902C6.60146 12.9855 6.6407 12.8285 6.6407 12.6192C6.6407 12.2111 6.49157 12.007 6.1933 12.007ZM8.39892 15.7511C8.39892 15.3481 8.51405 15.0368 8.74429 14.817C8.97976 14.592 9.28065 14.4795 9.64695 14.4795C10.0132 14.4795 10.3089 14.592 10.5339 14.817C10.7641 15.0368 10.8793 15.3481 10.8793 15.7511C10.8793 16.154 10.7641 16.468 10.5339 16.693C10.3089 16.918 10.0132 17.0305 9.64695 17.0305C9.27542 17.0305 8.97453 16.918 8.74429 16.693C8.51405 16.468 8.39892 16.154 8.39892 15.7511ZM9.6391 15.1388C9.34083 15.1388 9.19169 15.3429 9.19169 15.7511C9.19169 16.1644 9.34083 16.3711 9.6391 16.3711C9.93213 16.3711 10.0787 16.1644 10.0787 15.7511C10.0787 15.3429 9.93213 15.1388 9.6391 15.1388Z" fill="#4C8BFF"/>
</svg>
