<svg width="44" height="44" viewBox="0 0 44 44" fill="none" xmlns="http://www.w3.org/2000/svg">
<circle cx="22" cy="22" r="22" fill="white"/>
<path d="M30.183 18.6476C29.7646 18.6476 29.3681 18.7811 29.0406 19.0158C28.7131 19.2498 28.4547 19.5846 28.3112 19.987L26.1209 25.6774C26.1188 25.6829 26.1168 25.6886 26.1148 25.6941L26.1141 25.6949L25.8153 26.4718C25.7688 26.6023 25.7471 26.7341 25.7471 26.8626C25.7471 27.4655 26.2245 27.9985 26.8613 27.9985C27.6987 27.9985 28.4466 27.4633 28.7331 26.6591L30.8632 21.1246C30.8632 21.1246 30.8632 21.1245 30.8632 21.1244L31.2289 20.1742C31.2752 20.0437 31.297 19.9119 31.2968 19.7834C31.2966 19.1805 30.8197 18.6475 30.1829 18.6475L30.183 18.6476Z" fill="#1A1A4B"/>
<path d="M27.2048 18.6991C27.3597 18.2637 27.4364 17.8555 27.4365 17.481C27.437 15.9662 26.1853 15 23.7928 15H16.7958C16.4937 15 16.2011 15.1118 15.9728 15.3145C15.6727 15.5814 15.5387 15.9294 15.5387 16.2717C15.5387 16.9285 16.033 17.5651 16.7958 17.5651H23.1543C23.8932 17.5651 24.2851 17.8388 24.285 18.3041C24.285 18.3941 24.2702 18.4913 24.2405 18.595C24.2324 18.6243 24.2227 18.6537 24.2118 18.6838C23.9699 19.3615 23.2739 19.8192 22.351 19.8192H18.7503H14.5528C14.0742 19.8192 14.0012 20.0079 13.7988 20.5179L11.5694 26.2783C11.4655 26.5698 11.1764 27.3055 11.015 27.715C11.0047 27.741 11 27.7675 11 27.7933C11.0002 27.9026 11.0865 28 11.203 28C11.642 27.9993 12.437 27.9993 12.7487 27.9993H13.0481C13.5752 27.9993 14.0463 27.6618 14.2268 27.1551L15.5756 23.7914L15.8197 23.1827C15.9994 22.6762 16.4712 22.3387 16.9983 22.3387H21.1664C24.1648 22.3387 26.4283 20.8798 27.2049 18.699L27.2048 18.6991Z" fill="#1A1A4B"/>
<path d="M31.8667 15.153C31.6916 15.0559 31.49 15 31.2713 15H30.9568C30.4297 15 29.9587 15.3375 29.7782 15.8441C29.7256 15.9912 29.7011 16.14 29.7012 16.2851C29.7012 16.5209 29.7663 16.7474 29.8814 16.9426C30.0066 17.1543 30.1898 17.329 30.4126 17.4387C30.5753 17.519 30.7592 17.5652 30.9568 17.5652H31.2713C31.7991 17.5652 32.2701 17.2277 32.4506 16.7212C32.5025 16.5744 32.5272 16.4263 32.5272 16.2817C32.5272 15.8087 32.2667 15.374 31.8668 15.1532L31.8667 15.153Z" fill="#1A1A4B"/>
</svg>
