<svg width="16" height="18" viewBox="0 0 16 18" fill="none" xmlns="http://www.w3.org/2000/svg">
<mask id="path-1-inside-1_2866_6533" fill="white">
<path fill-rule="evenodd" clip-rule="evenodd" d="M12.5858 0.585786C12.2107 0.210713 11.702 0 11.1716 0H2C0.895431 0 0 0.89543 0 2V16C0 17.1046 0.895431 18 2 18H14C15.1046 18 16 17.1046 16 16V4.82843C16 4.29799 15.7893 3.78929 15.4142 3.41421L14 2L12.5858 0.585786Z"/>
</mask>
<path d="M14 2L13.2929 2.70711L14 2ZM15.4142 3.41421L14.7071 4.12132L15.4142 3.41421ZM12.5858 0.585786L11.8787 1.29289L12.5858 0.585786ZM2 1H11.1716V-1H2V1ZM1 16V2H-1V16H1ZM14 17H2V19H14V17ZM15 4.82843V16H17V4.82843H15ZM16.1213 2.70711L14.7071 1.29289L13.2929 2.70711L14.7071 4.12132L16.1213 2.70711ZM14.7071 1.29289L13.2929 -0.121321L11.8787 1.29289L13.2929 2.70711L14.7071 1.29289ZM17 4.82843C17 4.03278 16.6839 3.26972 16.1213 2.70711L14.7071 4.12132C14.8946 4.30886 15 4.56321 15 4.82843H17ZM14 19C15.6569 19 17 17.6569 17 16H15C15 16.5523 14.5523 17 14 17V19ZM-1 16C-1 17.6569 0.343146 19 2 19V17C1.44772 17 1 16.5523 1 16H-1ZM11.1716 1C11.4368 1 11.6911 1.10536 11.8787 1.29289L13.2929 -0.121321C12.7303 -0.683931 11.9672 -1 11.1716 -1V1ZM2 -1C0.343146 -1 -1 0.343146 -1 2H1C1 1.44772 1.44772 1 2 1V-1Z" fill="#4C8BFF" mask="url(#path-1-inside-1_2866_6533)"/>
<line x1="3" y1="6.5" x2="12" y2="6.5" stroke="#4C8BFF"/>
<line x1="3" y1="8.5" x2="12" y2="8.5" stroke="#4C8BFF"/>
<line x1="3" y1="10.5" x2="12" y2="10.5" stroke="#4C8BFF"/>
<line x1="3" y1="14.5" x2="12" y2="14.5" stroke="#4C8BFF"/>
</svg>
