<svg width="208" height="141" viewBox="0 0 208 141" fill="none" xmlns="http://www.w3.org/2000/svg">
<rect width="141" height="141" rx="4" fill="#161616"/>
<rect x="109" y="42" width="99" height="99" rx="4" fill="#A07E4B"/>
<rect x="75" y="75" width="66" height="66" rx="4" fill="#4A3A20"/>
<path d="M118.961 58L117.37 52.1818H118.086L119.301 56.9205H119.358L120.597 52.1818H121.392L122.631 56.9205H122.688L123.904 52.1818H124.62L123.029 58H122.301L121.017 53.3636H120.972L119.688 58H118.961ZM126.83 58.0909C126.409 58.0909 126.047 57.9981 125.742 57.8125C125.439 57.625 125.205 57.3636 125.04 57.0284C124.877 56.6913 124.796 56.2992 124.796 55.8523C124.796 55.4053 124.877 55.0114 125.04 54.6705C125.205 54.3277 125.434 54.0606 125.728 53.8693C126.023 53.6761 126.368 53.5795 126.762 53.5795C126.989 53.5795 127.213 53.6174 127.435 53.6932C127.657 53.7689 127.858 53.892 128.04 54.0625C128.222 54.2311 128.367 54.4545 128.475 54.733C128.583 55.0114 128.637 55.3542 128.637 55.7614V56.0455H125.273V55.4659H127.955C127.955 55.2197 127.906 55 127.807 54.8068C127.711 54.6136 127.572 54.4612 127.392 54.3494C127.214 54.2377 127.004 54.1818 126.762 54.1818C126.495 54.1818 126.264 54.2481 126.069 54.3807C125.875 54.5114 125.727 54.6818 125.623 54.892C125.518 55.1023 125.466 55.3277 125.466 55.5682V55.9545C125.466 56.2841 125.523 56.5634 125.637 56.7926C125.752 57.0199 125.912 57.1932 126.117 57.3125C126.321 57.4299 126.559 57.4886 126.83 57.4886C127.006 57.4886 127.165 57.464 127.307 57.4148C127.451 57.3636 127.575 57.2879 127.679 57.1875C127.783 57.0852 127.864 56.9583 127.921 56.8068L128.569 56.9886C128.5 57.2083 128.386 57.4015 128.225 57.5682C128.064 57.733 127.865 57.8617 127.628 57.9545C127.391 58.0455 127.125 58.0909 126.83 58.0909ZM130.941 58.1023C130.664 58.1023 130.413 58.0502 130.188 57.946C129.962 57.84 129.783 57.6875 129.651 57.4886C129.518 57.2879 129.452 57.0455 129.452 56.7614C129.452 56.5114 129.501 56.3087 129.6 56.1534C129.698 55.9962 129.83 55.8731 129.995 55.7841C130.159 55.6951 130.341 55.6288 130.54 55.5852C130.741 55.5398 130.943 55.5038 131.145 55.4773C131.41 55.4432 131.625 55.4176 131.79 55.4006C131.957 55.3816 132.078 55.3504 132.154 55.3068C132.231 55.2633 132.27 55.1875 132.27 55.0795V55.0568C132.27 54.7765 132.194 54.5587 132.04 54.4034C131.889 54.2481 131.658 54.1705 131.35 54.1705C131.03 54.1705 130.779 54.2405 130.597 54.3807C130.415 54.5208 130.287 54.6705 130.213 54.8295L129.577 54.6023C129.691 54.3371 129.842 54.1307 130.032 53.983C130.223 53.8333 130.431 53.7292 130.657 53.6705C130.884 53.6098 131.107 53.5795 131.327 53.5795C131.467 53.5795 131.628 53.5966 131.81 53.6307C131.994 53.6629 132.171 53.7301 132.341 53.8324C132.514 53.9347 132.657 54.089 132.77 54.2955C132.884 54.5019 132.941 54.7784 132.941 55.125V58H132.27V57.4091H132.236C132.191 57.5038 132.115 57.6051 132.009 57.7131C131.903 57.821 131.762 57.9129 131.586 57.9886C131.409 58.0644 131.194 58.1023 130.941 58.1023ZM131.043 57.5C131.308 57.5 131.532 57.4479 131.713 57.3438C131.897 57.2396 132.035 57.1051 132.128 56.9403C132.223 56.7756 132.27 56.6023 132.27 56.4205V55.8068C132.242 55.8409 132.179 55.8722 132.083 55.9006C131.988 55.9271 131.878 55.9508 131.753 55.9716C131.63 55.9905 131.51 56.0076 131.392 56.0227C131.277 56.036 131.183 56.0473 131.111 56.0568C130.937 56.0795 130.774 56.1165 130.623 56.1676C130.473 56.2169 130.352 56.2917 130.259 56.392C130.168 56.4905 130.123 56.625 130.123 56.7955C130.123 57.0284 130.209 57.2045 130.381 57.3239C130.555 57.4413 130.776 57.5 131.043 57.5ZM134.835 52.1818V58H134.164V52.1818H134.835ZM137.961 53.6364V54.2045H135.699V53.6364H137.961ZM136.358 52.5909H137.029V56.75C137.029 56.9394 137.056 57.0814 137.111 57.1761C137.168 57.2689 137.24 57.3314 137.327 57.3636C137.416 57.3939 137.51 57.4091 137.608 57.4091C137.682 57.4091 137.743 57.4053 137.79 57.3977C137.837 57.3883 137.875 57.3807 137.904 57.375L138.04 57.9773C137.995 57.9943 137.931 58.0114 137.85 58.0284C137.768 58.0473 137.665 58.0568 137.54 58.0568C137.351 58.0568 137.165 58.0161 136.983 57.9347C136.803 57.8532 136.654 57.7292 136.534 57.5625C136.417 57.3958 136.358 57.1856 136.358 56.9318V52.5909ZM139.733 55.375V58H139.063V52.1818H139.733V54.3182H139.79C139.892 54.0928 140.046 53.9138 140.25 53.7812C140.457 53.6468 140.731 53.5795 141.074 53.5795C141.372 53.5795 141.632 53.6392 141.855 53.7585C142.079 53.8759 142.252 54.0568 142.375 54.3011C142.5 54.5436 142.563 54.8523 142.563 55.2273V58H141.892V55.2727C141.892 54.9261 141.802 54.6581 141.623 54.4688C141.444 54.2775 141.197 54.1818 140.881 54.1818C140.661 54.1818 140.464 54.2282 140.29 54.321C140.118 54.4138 139.981 54.5492 139.881 54.7273C139.783 54.9053 139.733 55.1212 139.733 55.375ZM146.039 58V53.6364H146.687V54.3182H146.744C146.835 54.0852 146.982 53.9044 147.184 53.7756C147.387 53.6449 147.63 53.5795 147.914 53.5795C148.202 53.5795 148.442 53.6449 148.633 53.7756C148.826 53.9044 148.977 54.0852 149.085 54.3182H149.13C149.242 54.0928 149.41 53.9138 149.633 53.7812C149.857 53.6468 150.125 53.5795 150.437 53.5795C150.827 53.5795 151.146 53.7017 151.395 53.946C151.643 54.1884 151.767 54.5663 151.767 55.0795V58H151.096V55.0795C151.096 54.7576 151.008 54.5275 150.832 54.3892C150.656 54.2509 150.449 54.1818 150.21 54.1818C149.903 54.1818 149.665 54.2746 149.497 54.4602C149.328 54.6439 149.244 54.8769 149.244 55.1591V58H148.562V55.0114C148.562 54.7633 148.482 54.5634 148.321 54.4119C148.16 54.2585 147.952 54.1818 147.699 54.1818C147.524 54.1818 147.361 54.2282 147.21 54.321C147.06 54.4138 146.939 54.5426 146.846 54.7074C146.755 54.8703 146.71 55.0587 146.71 55.2727V58H146.039ZM154.277 58.1023C154 58.1023 153.749 58.0502 153.524 57.946C153.298 57.84 153.119 57.6875 152.987 57.4886C152.854 57.2879 152.788 57.0455 152.788 56.7614C152.788 56.5114 152.837 56.3087 152.936 56.1534C153.034 55.9962 153.166 55.8731 153.331 55.7841C153.495 55.6951 153.677 55.6288 153.876 55.5852C154.077 55.5398 154.279 55.5038 154.481 55.4773C154.746 55.4432 154.961 55.4176 155.126 55.4006C155.293 55.3816 155.414 55.3504 155.49 55.3068C155.567 55.2633 155.606 55.1875 155.606 55.0795V55.0568C155.606 54.7765 155.529 54.5587 155.376 54.4034C155.225 54.2481 154.994 54.1705 154.686 54.1705C154.366 54.1705 154.115 54.2405 153.933 54.3807C153.751 54.5208 153.623 54.6705 153.549 54.8295L152.913 54.6023C153.027 54.3371 153.178 54.1307 153.368 53.983C153.559 53.8333 153.767 53.7292 153.993 53.6705C154.22 53.6098 154.443 53.5795 154.663 53.5795C154.803 53.5795 154.964 53.5966 155.146 53.6307C155.33 53.6629 155.507 53.7301 155.677 53.8324C155.85 53.9347 155.993 54.089 156.106 54.2955C156.22 54.5019 156.277 54.7784 156.277 55.125V58H155.606V57.4091H155.572C155.527 57.5038 155.451 57.6051 155.345 57.7131C155.239 57.821 155.098 57.9129 154.922 57.9886C154.745 58.0644 154.53 58.1023 154.277 58.1023ZM154.379 57.5C154.644 57.5 154.868 57.4479 155.049 57.3438C155.233 57.2396 155.371 57.1051 155.464 56.9403C155.559 56.7756 155.606 56.6023 155.606 56.4205V55.8068C155.578 55.8409 155.515 55.8722 155.419 55.9006C155.324 55.9271 155.214 55.9508 155.089 55.9716C154.966 55.9905 154.846 56.0076 154.728 56.0227C154.613 56.036 154.519 56.0473 154.447 56.0568C154.273 56.0795 154.11 56.1165 153.958 56.1676C153.809 56.2169 153.688 56.2917 153.595 56.392C153.504 56.4905 153.458 56.625 153.458 56.7955C153.458 57.0284 153.545 57.2045 153.717 57.3239C153.891 57.4413 154.112 57.5 154.379 57.5ZM158.171 55.375V58H157.5V53.6364H158.148V54.3182H158.205C158.307 54.0966 158.462 53.9186 158.671 53.7841C158.879 53.6477 159.148 53.5795 159.478 53.5795C159.773 53.5795 160.032 53.6402 160.253 53.7614C160.475 53.8807 160.647 54.0625 160.77 54.3068C160.893 54.5492 160.955 54.8561 160.955 55.2273V58H160.284V55.2727C160.284 54.9299 160.195 54.6629 160.017 54.4716C159.839 54.2784 159.595 54.1818 159.284 54.1818C159.07 54.1818 158.879 54.2282 158.711 54.321C158.544 54.4138 158.412 54.5492 158.316 54.7273C158.219 54.9053 158.171 55.1212 158.171 55.375ZM163.464 58.1023C163.188 58.1023 162.937 58.0502 162.711 57.946C162.486 57.84 162.307 57.6875 162.174 57.4886C162.042 57.2879 161.975 57.0455 161.975 56.7614C161.975 56.5114 162.025 56.3087 162.123 56.1534C162.222 55.9962 162.353 55.8731 162.518 55.7841C162.683 55.6951 162.865 55.6288 163.064 55.5852C163.264 55.5398 163.466 55.5038 163.669 55.4773C163.934 55.4432 164.149 55.4176 164.314 55.4006C164.48 55.3816 164.601 55.3504 164.677 55.3068C164.755 55.2633 164.794 55.1875 164.794 55.0795V55.0568C164.794 54.7765 164.717 54.5587 164.564 54.4034C164.412 54.2481 164.182 54.1705 163.873 54.1705C163.553 54.1705 163.302 54.2405 163.12 54.3807C162.939 54.5208 162.811 54.6705 162.737 54.8295L162.1 54.6023C162.214 54.3371 162.366 54.1307 162.555 53.983C162.746 53.8333 162.955 53.7292 163.18 53.6705C163.407 53.6098 163.631 53.5795 163.85 53.5795C163.991 53.5795 164.152 53.5966 164.333 53.6307C164.517 53.6629 164.694 53.7301 164.865 53.8324C165.037 53.9347 165.18 54.089 165.294 54.2955C165.407 54.5019 165.464 54.7784 165.464 55.125V58H164.794V57.4091H164.76C164.714 57.5038 164.638 57.6051 164.532 57.7131C164.426 57.821 164.285 57.9129 164.109 57.9886C163.933 58.0644 163.718 58.1023 163.464 58.1023ZM163.566 57.5C163.832 57.5 164.055 57.4479 164.237 57.3438C164.421 57.2396 164.559 57.1051 164.652 56.9403C164.746 56.7756 164.794 56.6023 164.794 56.4205V55.8068C164.765 55.8409 164.703 55.8722 164.606 55.9006C164.511 55.9271 164.402 55.9508 164.277 55.9716C164.154 55.9905 164.033 56.0076 163.916 56.0227C163.8 56.036 163.707 56.0473 163.635 56.0568C163.46 56.0795 163.297 56.1165 163.146 56.1676C162.996 56.2169 162.875 56.2917 162.782 56.392C162.691 56.4905 162.646 56.625 162.646 56.7955C162.646 57.0284 162.732 57.2045 162.904 57.3239C163.079 57.4413 163.299 57.5 163.566 57.5ZM168.449 59.7273C168.125 59.7273 167.847 59.6856 167.614 59.6023C167.381 59.5208 167.187 59.4129 167.032 59.2784C166.878 59.1458 166.756 59.0038 166.665 58.8523L167.199 58.4773C167.26 58.5568 167.337 58.6477 167.429 58.75C167.522 58.8542 167.649 58.9441 167.81 59.0199C167.973 59.0975 168.186 59.1364 168.449 59.1364C168.801 59.1364 169.092 59.0511 169.321 58.8807C169.551 58.7102 169.665 58.4432 169.665 58.0795V57.1932H169.608C169.559 57.2727 169.489 57.3712 169.398 57.4886C169.309 57.6042 169.18 57.7074 169.012 57.7983C168.845 57.8873 168.62 57.9318 168.336 57.9318C167.983 57.9318 167.667 57.8485 167.387 57.6818C167.108 57.5152 166.888 57.2727 166.725 56.9545C166.564 56.6364 166.483 56.25 166.483 55.7955C166.483 55.3485 166.562 54.9593 166.719 54.6278C166.876 54.2945 167.095 54.0369 167.375 53.8551C167.656 53.6714 167.98 53.5795 168.347 53.5795C168.631 53.5795 168.856 53.6269 169.023 53.7216C169.192 53.8144 169.32 53.9205 169.409 54.0398C169.5 54.1572 169.57 54.2538 169.62 54.3295H169.688V53.6364H170.336V58.125C170.336 58.5 170.25 58.8049 170.08 59.0398C169.911 59.2765 169.684 59.4498 169.398 59.5597C169.114 59.6714 168.798 59.7273 168.449 59.7273ZM168.426 57.3295C168.695 57.3295 168.923 57.268 169.108 57.1449C169.294 57.0218 169.435 56.8447 169.532 56.6136C169.628 56.3826 169.676 56.1061 169.676 55.7841C169.676 55.4697 169.629 55.1922 169.534 54.9517C169.44 54.7112 169.3 54.5227 169.114 54.3864C168.928 54.25 168.699 54.1818 168.426 54.1818C168.142 54.1818 167.906 54.2538 167.716 54.3977C167.529 54.5417 167.388 54.7348 167.293 54.9773C167.2 55.2197 167.154 55.4886 167.154 55.7841C167.154 56.0871 167.201 56.3551 167.296 56.5881C167.392 56.8191 167.534 57.0009 167.722 57.1335C167.911 57.2642 168.146 57.3295 168.426 57.3295ZM173.392 58.0909C172.972 58.0909 172.609 57.9981 172.304 57.8125C172.001 57.625 171.767 57.3636 171.603 57.0284C171.44 56.6913 171.358 56.2992 171.358 55.8523C171.358 55.4053 171.44 55.0114 171.603 54.6705C171.767 54.3277 171.997 54.0606 172.29 53.8693C172.586 53.6761 172.93 53.5795 173.324 53.5795C173.551 53.5795 173.776 53.6174 173.998 53.6932C174.219 53.7689 174.421 53.892 174.603 54.0625C174.784 54.2311 174.929 54.4545 175.037 54.733C175.145 55.0114 175.199 55.3542 175.199 55.7614V56.0455H171.836V55.4659H174.517C174.517 55.2197 174.468 55 174.37 54.8068C174.273 54.6136 174.135 54.4612 173.955 54.3494C173.777 54.2377 173.567 54.1818 173.324 54.1818C173.057 54.1818 172.826 54.2481 172.631 54.3807C172.438 54.5114 172.289 54.6818 172.185 54.892C172.081 55.1023 172.029 55.3277 172.029 55.5682V55.9545C172.029 56.2841 172.086 56.5634 172.199 56.7926C172.315 57.0199 172.475 57.1932 172.679 57.3125C172.884 57.4299 173.122 57.4886 173.392 57.4886C173.569 57.4886 173.728 57.464 173.87 57.4148C174.014 57.3636 174.138 57.2879 174.242 57.1875C174.346 57.0852 174.426 56.9583 174.483 56.8068L175.131 56.9886C175.063 57.2083 174.948 57.4015 174.787 57.5682C174.626 57.733 174.427 57.8617 174.191 57.9545C173.954 58.0455 173.688 58.0909 173.392 58.0909ZM176.219 58V53.6364H176.867V54.3182H176.924C177.015 54.0852 177.161 53.9044 177.364 53.7756C177.567 53.6449 177.81 53.5795 178.094 53.5795C178.382 53.5795 178.622 53.6449 178.813 53.7756C179.006 53.9044 179.157 54.0852 179.265 54.3182H179.31C179.422 54.0928 179.589 53.9138 179.813 53.7812C180.036 53.6468 180.304 53.5795 180.617 53.5795C181.007 53.5795 181.326 53.7017 181.574 53.946C181.822 54.1884 181.946 54.5663 181.946 55.0795V58H181.276V55.0795C181.276 54.7576 181.188 54.5275 181.012 54.3892C180.836 54.2509 180.628 54.1818 180.39 54.1818C180.083 54.1818 179.845 54.2746 179.676 54.4602C179.508 54.6439 179.424 54.8769 179.424 55.1591V58H178.742V55.0114C178.742 54.7633 178.661 54.5634 178.5 54.4119C178.339 54.2585 178.132 54.1818 177.878 54.1818C177.704 54.1818 177.541 54.2282 177.39 54.321C177.24 54.4138 177.119 54.5426 177.026 54.7074C176.935 54.8703 176.89 55.0587 176.89 55.2727V58H176.219ZM185.002 58.0909C184.581 58.0909 184.219 57.9981 183.914 57.8125C183.611 57.625 183.377 57.3636 183.212 57.0284C183.049 56.6913 182.968 56.2992 182.968 55.8523C182.968 55.4053 183.049 55.0114 183.212 54.6705C183.377 54.3277 183.606 54.0606 183.9 53.8693C184.195 53.6761 184.54 53.5795 184.934 53.5795C185.161 53.5795 185.385 53.6174 185.607 53.6932C185.828 53.7689 186.03 53.892 186.212 54.0625C186.394 54.2311 186.539 54.4545 186.647 54.733C186.755 55.0114 186.809 55.3542 186.809 55.7614V56.0455H183.445V55.4659H186.127C186.127 55.2197 186.078 55 185.979 54.8068C185.882 54.6136 185.744 54.4612 185.564 54.3494C185.386 54.2377 185.176 54.1818 184.934 54.1818C184.667 54.1818 184.435 54.2481 184.24 54.3807C184.047 54.5114 183.899 54.6818 183.794 54.892C183.69 55.1023 183.638 55.3277 183.638 55.5682V55.9545C183.638 56.2841 183.695 56.5634 183.809 56.7926C183.924 57.0199 184.084 57.1932 184.289 57.3125C184.493 57.4299 184.731 57.4886 185.002 57.4886C185.178 57.4886 185.337 57.464 185.479 57.4148C185.623 57.3636 185.747 57.2879 185.851 57.1875C185.955 57.0852 186.036 56.9583 186.093 56.8068L186.74 56.9886C186.672 57.2083 186.558 57.4015 186.397 57.5682C186.236 57.733 186.037 57.8617 185.8 57.9545C185.563 58.0455 185.297 58.0909 185.002 58.0909ZM188.499 55.375V58H187.828V53.6364H188.476V54.3182H188.533C188.635 54.0966 188.791 53.9186 188.999 53.7841C189.207 53.6477 189.476 53.5795 189.806 53.5795C190.101 53.5795 190.36 53.6402 190.581 53.7614C190.803 53.8807 190.975 54.0625 191.098 54.3068C191.221 54.5492 191.283 54.8561 191.283 55.2273V58H190.613V55.2727C190.613 54.9299 190.524 54.6629 190.346 54.4716C190.167 54.2784 189.923 54.1818 189.613 54.1818C189.399 54.1818 189.207 54.2282 189.039 54.321C188.872 54.4138 188.74 54.5492 188.644 54.7273C188.547 54.9053 188.499 55.1212 188.499 55.375ZM194.406 53.6364V54.2045H192.145V53.6364H194.406ZM192.804 52.5909H193.474V56.75C193.474 56.9394 193.502 57.0814 193.556 57.1761C193.613 57.2689 193.685 57.3314 193.772 57.3636C193.861 57.3939 193.955 57.4091 194.054 57.4091C194.127 57.4091 194.188 57.4053 194.235 57.3977C194.283 57.3883 194.321 57.3807 194.349 57.375L194.485 57.9773C194.44 57.9943 194.377 58.0114 194.295 58.0284C194.214 58.0473 194.11 58.0568 193.985 58.0568C193.796 58.0568 193.61 58.0161 193.429 57.9347C193.249 57.8532 193.099 57.7292 192.98 57.5625C192.862 57.3958 192.804 57.1856 192.804 56.9318V52.5909Z" fill="white"/>
<path d="M9.24432 20V11.2727H14.4773V12.2102H10.3011V15.1591H14.0852V16.0966H10.3011V20H9.24432ZM16.1509 20V13.4545H17.1566V20H16.1509ZM16.6623 12.3636C16.4663 12.3636 16.2972 12.2969 16.1552 12.1634C16.016 12.0298 15.9464 11.8693 15.9464 11.6818C15.9464 11.4943 16.016 11.3338 16.1552 11.2003C16.2972 11.0668 16.4663 11 16.6623 11C16.8583 11 17.0259 11.0668 17.1651 11.2003C17.3072 11.3338 17.3782 11.4943 17.3782 11.6818C17.3782 11.8693 17.3072 12.0298 17.1651 12.1634C17.0259 12.2969 16.8583 12.3636 16.6623 12.3636ZM19.7486 13.4545L21.3168 16.1307L22.8849 13.4545H24.044L21.9304 16.7273L24.044 20H22.8849L21.3168 17.4602L19.7486 20H18.5895L20.669 16.7273L18.5895 13.4545H19.7486ZM27.9538 20.1364C27.3232 20.1364 26.7791 19.9972 26.3217 19.7188C25.8672 19.4375 25.5163 19.0455 25.2692 18.5426C25.0249 18.0369 24.9027 17.4489 24.9027 16.7784C24.9027 16.108 25.0249 15.517 25.2692 15.0057C25.5163 14.4915 25.8601 14.0909 26.3004 13.804C26.7436 13.5142 27.2607 13.3693 27.8516 13.3693C28.1925 13.3693 28.5291 13.4261 28.8615 13.5398C29.1939 13.6534 29.4964 13.8381 29.7692 14.0938C30.0419 14.3466 30.2592 14.6818 30.4212 15.0994C30.5831 15.517 30.6641 16.0312 30.6641 16.642V17.0682H25.6186V16.1989H29.6413C29.6413 15.8295 29.5675 15.5 29.4197 15.2102C29.2749 14.9205 29.0675 14.6918 28.7976 14.5241C28.5305 14.3565 28.2152 14.2727 27.8516 14.2727C27.451 14.2727 27.1044 14.3722 26.8118 14.571C26.522 14.767 26.299 15.0227 26.1428 15.3381C25.9865 15.6534 25.9084 15.9915 25.9084 16.3523V16.9318C25.9084 17.4261 25.9936 17.8452 26.1641 18.1889C26.3374 18.5298 26.5774 18.7898 26.8842 18.9688C27.1911 19.1449 27.5476 19.233 27.9538 19.233C28.218 19.233 28.4567 19.196 28.6697 19.1222C28.8857 19.0455 29.0717 18.9318 29.228 18.7812C29.3842 18.6278 29.505 18.4375 29.5902 18.2102L30.5618 18.483C30.4595 18.8125 30.2876 19.1023 30.0462 19.3523C29.8047 19.5994 29.5064 19.7926 29.1513 19.9318C28.7962 20.0682 28.397 20.1364 27.9538 20.1364ZM34.6655 20.1364C34.12 20.1364 33.6385 19.9986 33.2209 19.723C32.8033 19.4446 32.4766 19.0526 32.2408 18.5469C32.005 18.0384 31.8871 17.4375 31.8871 16.7443C31.8871 16.0568 32.005 15.4602 32.2408 14.9545C32.4766 14.4489 32.8047 14.0582 33.2251 13.7827C33.6456 13.5071 34.1314 13.3693 34.6825 13.3693C35.1087 13.3693 35.4453 13.4403 35.6925 13.5824C35.9425 13.7216 36.1328 13.8807 36.2635 14.0597C36.397 14.2358 36.5007 14.3807 36.5746 14.4943H36.6598V11.2727H37.6655V20H36.6939V18.9943H36.5746C36.5007 19.1136 36.3956 19.2642 36.2592 19.446C36.1229 19.625 35.9283 19.7855 35.6754 19.9276C35.4226 20.0668 35.0859 20.1364 34.6655 20.1364ZM34.8018 19.233C35.2053 19.233 35.5462 19.1278 35.8246 18.9176C36.103 18.7045 36.3146 18.4105 36.4595 18.0355C36.6044 17.6577 36.6768 17.2216 36.6768 16.7273C36.6768 16.2386 36.6058 15.8111 36.4638 15.4446C36.3217 15.0753 36.1115 14.7884 35.8331 14.5838C35.5547 14.3764 35.2109 14.2727 34.8018 14.2727C34.3757 14.2727 34.0206 14.3821 33.7365 14.6009C33.4553 14.8168 33.2436 15.1108 33.1016 15.483C32.9624 15.8523 32.8928 16.267 32.8928 16.7273C32.8928 17.1932 32.9638 17.6165 33.1058 17.9972C33.2507 18.375 33.4638 18.6761 33.745 18.9006C34.0291 19.1222 34.3814 19.233 34.8018 19.233ZM45.8516 20H43.1584V11.2727H45.9709C46.8175 11.2727 47.5419 11.4474 48.1442 11.7969C48.7464 12.1435 49.2081 12.642 49.5291 13.2926C49.8501 13.9403 50.0107 14.7159 50.0107 15.6193C50.0107 16.5284 49.8487 17.3111 49.5249 17.9673C49.201 18.6207 48.7294 19.1236 48.1101 19.4759C47.4908 19.8253 46.7379 20 45.8516 20ZM44.2152 19.0625H45.7834C46.505 19.0625 47.103 18.9233 47.5774 18.6449C48.0518 18.3665 48.4055 17.9702 48.6385 17.456C48.8714 16.9418 48.9879 16.3295 48.9879 15.6193C48.9879 14.9148 48.8729 14.3082 48.6428 13.7997C48.4126 13.2884 48.0689 12.8963 47.6115 12.6236C47.1541 12.348 46.5845 12.2102 45.9027 12.2102H44.2152V19.0625ZM54.3913 20.1364C53.7607 20.1364 53.2166 19.9972 52.7592 19.7188C52.3047 19.4375 51.9538 19.0455 51.7067 18.5426C51.4624 18.0369 51.3402 17.4489 51.3402 16.7784C51.3402 16.108 51.4624 15.517 51.7067 15.0057C51.9538 14.4915 52.2976 14.0909 52.7379 13.804C53.1811 13.5142 53.6982 13.3693 54.2891 13.3693C54.63 13.3693 54.9666 13.4261 55.299 13.5398C55.6314 13.6534 55.9339 13.8381 56.2067 14.0938C56.4794 14.3466 56.6967 14.6818 56.8587 15.0994C57.0206 15.517 57.1016 16.0312 57.1016 16.642V17.0682H52.0561V16.1989H56.0788C56.0788 15.8295 56.005 15.5 55.8572 15.2102C55.7124 14.9205 55.505 14.6918 55.2351 14.5241C54.968 14.3565 54.6527 14.2727 54.2891 14.2727C53.8885 14.2727 53.5419 14.3722 53.2493 14.571C52.9595 14.767 52.7365 15.0227 52.5803 15.3381C52.424 15.6534 52.3459 15.9915 52.3459 16.3523V16.9318C52.3459 17.4261 52.4311 17.8452 52.6016 18.1889C52.7749 18.5298 53.0149 18.7898 53.3217 18.9688C53.6286 19.1449 53.9851 19.233 54.3913 19.233C54.6555 19.233 54.8942 19.196 55.1072 19.1222C55.3232 19.0455 55.5092 18.9318 55.6655 18.7812C55.8217 18.6278 55.9425 18.4375 56.0277 18.2102L56.9993 18.483C56.897 18.8125 56.7251 19.1023 56.4837 19.3523C56.2422 19.5994 55.9439 19.7926 55.5888 19.9318C55.2337 20.0682 54.8345 20.1364 54.3913 20.1364ZM58.6314 22.4545V13.4545H59.603V14.4943H59.7223C59.7962 14.3807 59.8984 14.2358 60.0291 14.0597C60.1626 13.8807 60.353 13.7216 60.6001 13.5824C60.8501 13.4403 61.1882 13.3693 61.6143 13.3693C62.1655 13.3693 62.6513 13.5071 63.0717 13.7827C63.4922 14.0582 63.8203 14.4489 64.0561 14.9545C64.2919 15.4602 64.4098 16.0568 64.4098 16.7443C64.4098 17.4375 64.2919 18.0384 64.0561 18.5469C63.8203 19.0526 63.4936 19.4446 63.076 19.723C62.6584 19.9986 62.1768 20.1364 61.6314 20.1364C61.2109 20.1364 60.8743 20.0668 60.6214 19.9276C60.3686 19.7855 60.174 19.625 60.0376 19.446C59.9013 19.2642 59.7962 19.1136 59.7223 18.9943H59.6371V22.4545H58.6314ZM59.62 16.7273C59.62 17.2216 59.6925 17.6577 59.8374 18.0355C59.9822 18.4105 60.1939 18.7045 60.4723 18.9176C60.7507 19.1278 61.0916 19.233 61.495 19.233C61.9155 19.233 62.2663 19.1222 62.5476 18.9006C62.8317 18.6761 63.0447 18.375 63.1868 17.9972C63.3317 17.6165 63.4041 17.1932 63.4041 16.7273C63.4041 16.267 63.3331 15.8523 63.1911 15.483C63.0518 15.1108 62.8402 14.8168 62.5561 14.6009C62.2749 14.3821 61.9212 14.2727 61.495 14.2727C61.0859 14.2727 60.7422 14.3764 60.4638 14.5838C60.1854 14.7884 59.9751 15.0753 59.8331 15.4446C59.6911 15.8111 59.62 16.2386 59.62 16.7273ZM68.603 20.1364C68.0121 20.1364 67.4936 19.9957 67.0476 19.7145C66.6044 19.4332 66.2578 19.0398 66.0078 18.5341C65.7607 18.0284 65.6371 17.4375 65.6371 16.7614C65.6371 16.0795 65.7607 15.4844 66.0078 14.9759C66.2578 14.4673 66.6044 14.0724 67.0476 13.7912C67.4936 13.5099 68.0121 13.3693 68.603 13.3693C69.1939 13.3693 69.7109 13.5099 70.1541 13.7912C70.6001 14.0724 70.9467 14.4673 71.1939 14.9759C71.4439 15.4844 71.5689 16.0795 71.5689 16.7614C71.5689 17.4375 71.4439 18.0284 71.1939 18.5341C70.9467 19.0398 70.6001 19.4332 70.1541 19.7145C69.7109 19.9957 69.1939 20.1364 68.603 20.1364ZM68.603 19.233C69.0518 19.233 69.4212 19.1179 69.7109 18.8878C70.0007 18.6577 70.2152 18.3551 70.3544 17.9801C70.4936 17.6051 70.5632 17.1989 70.5632 16.7614C70.5632 16.3239 70.4936 15.9162 70.3544 15.5384C70.2152 15.1605 70.0007 14.8551 69.7109 14.6222C69.4212 14.3892 69.0518 14.2727 68.603 14.2727C68.1541 14.2727 67.7848 14.3892 67.495 14.6222C67.2053 14.8551 66.9908 15.1605 66.8516 15.5384C66.7124 15.9162 66.6428 16.3239 66.6428 16.7614C66.6428 17.1989 66.7124 17.6051 66.8516 17.9801C66.9908 18.3551 67.2053 18.6577 67.495 18.8878C67.7848 19.1179 68.1541 19.233 68.603 19.233ZM77.7404 14.9205L76.837 15.1761C76.7802 15.0256 76.6964 14.8793 76.5856 14.7372C76.4776 14.5923 76.3299 14.473 76.1424 14.3793C75.9549 14.2855 75.7148 14.2386 75.4222 14.2386C75.0217 14.2386 74.6879 14.331 74.4208 14.5156C74.1566 14.6974 74.0245 14.929 74.0245 15.2102C74.0245 15.4602 74.1154 15.6577 74.2972 15.8026C74.479 15.9474 74.7631 16.0682 75.1495 16.1648L76.1211 16.4034C76.7063 16.5455 77.1424 16.7628 77.4293 17.0554C77.7163 17.3452 77.8597 17.7187 77.8597 18.1761C77.8597 18.5511 77.7518 18.8864 77.5359 19.1818C77.3228 19.4773 77.0245 19.7102 76.641 19.8807C76.2575 20.0511 75.8114 20.1364 75.3029 20.1364C74.6353 20.1364 74.0827 19.9915 73.6452 19.7017C73.2077 19.4119 72.9308 18.9886 72.8143 18.4318L73.7688 18.1932C73.8597 18.5455 74.0316 18.8097 74.2844 18.9858C74.5401 19.1619 74.8739 19.25 75.2859 19.25C75.7546 19.25 76.1268 19.1506 76.4023 18.9517C76.6808 18.75 76.82 18.5085 76.82 18.2273C76.82 18 76.7404 17.8097 76.5813 17.6562C76.4222 17.5 76.1779 17.3835 75.8484 17.3068L74.7575 17.0511C74.158 16.9091 73.7177 16.6889 73.4364 16.3906C73.158 16.0895 73.0188 15.7131 73.0188 15.2614C73.0188 14.892 73.1225 14.5653 73.3299 14.2812C73.5401 13.9972 73.8256 13.7741 74.1864 13.6122C74.5501 13.4503 74.962 13.3693 75.4222 13.3693C76.07 13.3693 76.5785 13.5114 76.9478 13.7955C77.32 14.0795 77.5842 14.4545 77.7404 14.9205ZM79.3736 20V13.4545H80.3793V20H79.3736ZM79.8849 12.3636C79.6889 12.3636 79.5199 12.2969 79.3778 12.1634C79.2386 12.0298 79.169 11.8693 79.169 11.6818C79.169 11.4943 79.2386 11.3338 79.3778 11.2003C79.5199 11.0668 79.6889 11 79.8849 11C80.081 11 80.2486 11.0668 80.3878 11.2003C80.5298 11.3338 80.6009 11.4943 80.6009 11.6818C80.6009 11.8693 80.5298 12.0298 80.3878 12.1634C80.2486 12.2969 80.081 12.3636 79.8849 12.3636ZM85.0678 13.4545V14.3068H81.6758V13.4545H85.0678ZM82.6644 11.8864H83.6701V18.125C83.6701 18.4091 83.7113 18.6222 83.7937 18.7642C83.8789 18.9034 83.9869 18.9972 84.1175 19.0455C84.2511 19.0909 84.3917 19.1136 84.5394 19.1136C84.6502 19.1136 84.7411 19.108 84.8121 19.0966C84.8832 19.0824 84.94 19.071 84.9826 19.0625L85.1871 19.9659C85.119 19.9915 85.0238 20.017 84.9016 20.0426C84.7795 20.071 84.6246 20.0852 84.4371 20.0852C84.1531 20.0852 83.8746 20.0241 83.6019 19.902C83.332 19.7798 83.1076 19.5938 82.9286 19.3438C82.7525 19.0938 82.6644 18.7784 82.6644 18.3977V11.8864ZM91.0998 14.9205L90.1964 15.1761C90.1396 15.0256 90.0558 14.8793 89.945 14.7372C89.837 14.5923 89.6893 14.473 89.5018 14.3793C89.3143 14.2855 89.0742 14.2386 88.7816 14.2386C88.381 14.2386 88.0472 14.331 87.7802 14.5156C87.516 14.6974 87.3839 14.929 87.3839 15.2102C87.3839 15.4602 87.4748 15.6577 87.6566 15.8026C87.8384 15.9474 88.1225 16.0682 88.5089 16.1648L89.4805 16.4034C90.0657 16.5455 90.5018 16.7628 90.7887 17.0554C91.0756 17.3452 91.2191 17.7187 91.2191 18.1761C91.2191 18.5511 91.1112 18.8864 90.8952 19.1818C90.6822 19.4773 90.3839 19.7102 90.0004 19.8807C89.6168 20.0511 89.1708 20.1364 88.6623 20.1364C87.9947 20.1364 87.4421 19.9915 87.0046 19.7017C86.5671 19.4119 86.2901 18.9886 86.1737 18.4318L87.1282 18.1932C87.2191 18.5455 87.391 18.8097 87.6438 18.9858C87.8995 19.1619 88.2333 19.25 88.6452 19.25C89.114 19.25 89.4862 19.1506 89.7617 18.9517C90.0401 18.75 90.1793 18.5085 90.1793 18.2273C90.1793 18 90.0998 17.8097 89.9407 17.6562C89.7816 17.5 89.5373 17.3835 89.2077 17.3068L88.1168 17.0511C87.5174 16.9091 87.0771 16.6889 86.7958 16.3906C86.5174 16.0895 86.3782 15.7131 86.3782 15.2614C86.3782 14.892 86.4819 14.5653 86.6893 14.2812C86.8995 13.9972 87.185 13.7741 87.5458 13.6122C87.9094 13.4503 88.3214 13.3693 88.7816 13.3693C89.4293 13.3693 89.9379 13.5114 90.3072 13.7955C90.6793 14.0795 90.9435 14.4545 91.0998 14.9205Z" fill="white"/>
<path d="M118.682 100.562L117.619 104.187H97.3691L98.4316 100.562H118.682ZM109.182 125L97.7441 111L97.6816 108.375H103.369C104.848 108.375 106.109 108.167 107.15 107.75C108.192 107.323 108.989 106.687 109.541 105.844C110.093 104.99 110.369 103.917 110.369 102.625C110.369 100.719 109.796 99.224 108.65 98.1406C107.505 97.0469 105.744 96.5 103.369 96.5H97.3691L98.4316 93H103.369C105.911 93 107.994 93.4219 109.619 94.2656C111.255 95.099 112.463 96.2448 113.244 97.7031C114.036 99.151 114.432 100.792 114.432 102.625C114.432 104.281 114.067 105.807 113.338 107.203C112.619 108.589 111.463 109.703 109.869 110.547C108.286 111.391 106.192 111.813 103.588 111.813H103.494L114.057 124.75V125H109.182ZM118.682 93L117.619 96.625L101.682 96.5L102.744 93H118.682Z" fill="#A07E4B"/>
</svg>
