<svg width="100" height="100" viewBox="0 0 100 100" fill="none" xmlns="http://www.w3.org/2000/svg">
<circle cx="50" cy="50" r="49.5" fill="white" stroke="url(#paint0_linear_4126_27917)"/>
<g opacity="0.9">
<path d="M65.305 44.0627C64.4623 44.0627 63.6637 44.3316 63.0042 44.8044C62.3447 45.2757 61.8241 45.9498 61.5352 46.7604L57.124 58.2207C57.1197 58.2318 57.1157 58.2432 57.1116 58.2544L57.1102 58.2559L56.5084 59.8207C56.4148 60.0834 56.3711 60.3489 56.3711 60.6077C56.3711 61.8219 57.3326 62.8954 58.6151 62.8954C60.3017 62.8954 61.808 61.8175 62.3848 60.1978L66.6749 49.0515C66.6749 49.0515 66.6749 49.0513 66.6749 49.051L67.4114 47.1373C67.5048 46.8745 67.5485 46.6091 67.5482 46.3502C67.5478 45.1361 66.5872 44.0625 65.3047 44.0625L65.305 44.0627Z" fill="black"/>
<path d="M59.3061 44.1686C59.6181 43.2918 59.7725 42.4698 59.7728 41.7155C59.7737 38.6646 57.2529 36.7188 52.4345 36.7188H38.3427C37.7342 36.7188 37.1448 36.9439 36.685 37.3521C36.0806 37.8897 35.8107 38.5905 35.8107 39.2799C35.8107 40.6026 36.8062 41.8848 38.3427 41.8848H51.1485C52.6367 41.8848 53.4259 42.436 53.4257 43.3731C53.4257 43.5545 53.396 43.7502 53.3361 43.9591C53.3197 44.0181 53.3003 44.0773 53.2784 44.1378C52.7911 45.5028 51.3894 46.4246 49.5307 46.4246H42.279H33.8252C32.8614 46.4246 32.7143 46.8046 32.3066 47.8318L27.8167 59.4331C27.6074 60.0201 27.0251 61.5018 26.7001 62.3265C26.6794 62.379 26.6699 62.4324 26.6699 62.4844C26.6704 62.7044 26.8441 62.9006 27.0788 62.9006C27.9629 62.8991 29.5639 62.8991 30.1919 62.8991H30.7949C31.8564 62.8991 32.8051 62.2194 33.1686 61.199L35.8851 54.4245L36.3767 53.1986C36.7387 52.1785 37.6888 51.4988 38.7504 51.4988H47.1449C53.1836 51.4988 57.7424 48.5605 59.3064 44.1684L59.3061 44.1686Z" fill="black"/>
<path d="M68.6973 37.0269C68.3447 36.8314 67.9387 36.7188 67.4982 36.7188H66.8648C65.8033 36.7188 64.8546 37.3984 64.4911 38.4188C64.3851 38.7151 64.3357 39.0147 64.3359 39.3069C64.3359 39.7819 64.4671 40.2379 64.699 40.631C64.951 41.0575 65.32 41.4093 65.7688 41.6303C66.0964 41.792 66.4668 41.885 66.8648 41.885H67.4982C68.5611 41.885 69.5098 41.2053 69.8733 40.1852C69.9778 39.8897 70.0275 39.5912 70.0275 39.3001C70.0275 38.3474 69.5029 37.472 68.6975 37.0274L68.6973 37.0269Z" fill="black"/>
</g>
<defs>
<linearGradient id="paint0_linear_4126_27917" x1="50" y1="0" x2="50" y2="100" gradientUnits="userSpaceOnUse">
<stop offset="0.08" stop-color="#2F1583"/>
<stop offset="0.54" stop-color="#9747FF"/>
<stop offset="1" stop-color="#F7B4F2"/>
</linearGradient>
</defs>
</svg>
