<svg width="19" height="19" viewBox="0 0 19 19" fill="none" xmlns="http://www.w3.org/2000/svg">
<path d="M18.5 9.5C18.5 11.8872 18.4993 13.6352 18.3546 14.937C18.2096 16.2424 17.9288 16.9891 17.4589 17.4589C16.9891 17.9288 16.2424 18.2096 14.937 18.3546C13.6352 18.4993 11.8872 18.5 9.5 18.5C7.11948 18.5 5.374 18.4632 4.07946 18.2758C2.78485 18.0883 2.02989 17.7612 1.55129 17.2536C1.07013 16.7433 0.789861 15.9681 0.645253 14.6929C0.500758 13.4188 0.5 11.743 0.5 9.5C0.5 7.11278 0.500742 5.36477 0.645379 4.06303C0.790426 2.7576 1.07122 2.01089 1.54105 1.54105C2.01089 1.07122 2.7576 0.790426 4.06303 0.645379C5.36477 0.500742 7.11278 0.5 9.5 0.5C11.8872 0.5 13.6352 0.500742 14.937 0.645379C16.2424 0.790426 16.9891 1.07122 17.4589 1.54105C17.9288 2.01089 18.2096 2.7576 18.3546 4.06303C18.4993 5.36477 18.5 7.11278 18.5 9.5Z" fill="white" stroke="#F5F5F5"/>
<path d="M13.7037 8.78496C13.726 8.71471 13.7364 8.64375 13.7363 8.57454C13.7363 8.5367 13.7332 8.49938 13.7272 8.46296L13.7037 8.78496ZM13.1951 8.46303C13.1969 8.4646 13.1995 8.46703 13.2025 8.47062C13.2188 8.48982 13.2363 8.52718 13.2363 8.57472L13.2363 8.57495C13.2363 8.59244 13.2339 8.61096 13.2283 8.63007L13.0553 9.13448L13.0283 9.2133V9.21342L12.0336 12.1147L12.0334 12.1146L12.0299 12.1256C11.9481 12.3834 11.7624 12.4946 11.6156 12.498C11.6137 12.4964 11.6111 12.494 11.608 12.4903C11.5916 12.4711 11.5742 12.4338 11.5742 12.3864C11.5742 12.3687 11.5767 12.3501 11.5823 12.3311L11.6915 12.0125L11.695 12.0084L11.7265 11.9106L11.7268 11.9096L11.7268 11.9096L12.7771 8.84638L12.7773 8.84642L12.7807 8.83551C12.8214 8.7073 12.8911 8.61209 12.9669 8.55124L12.9675 8.55077C13.0403 8.49221 13.1189 8.46461 13.1951 8.46303Z" fill="black" stroke="black"/>
<path d="M11.2965 7.84077L11.2964 7.84076C11.3582 7.64589 11.3842 7.47739 11.3842 7.33581C11.3843 7.06207 11.2902 6.88039 11.1307 6.75433C10.9553 6.61572 10.6429 6.5 10.1364 6.5H6.78013C6.77741 6.5 6.77299 6.50048 6.76651 6.50326C6.75989 6.5061 6.74987 6.51193 6.73831 6.52345L6.38533 6.16932L6.73862 6.52314C6.70009 6.56161 6.67709 6.61599 6.67709 6.68476C6.67709 6.75505 6.70193 6.81627 6.73022 6.85126C6.74308 6.86717 6.75361 6.8741 6.75908 6.87689C6.76332 6.87906 6.76888 6.8812 6.78013 6.8812H9.83012C10.0662 6.8812 10.3233 6.92872 10.5334 7.08556C10.7649 7.25837 10.8725 7.51409 10.8725 7.77912L11.2965 7.84077ZM11.2965 7.84077C10.9967 8.78545 10.1206 9.45161 8.87659 9.45161H6.87723C6.37433 9.45161 5.98156 9.80559 5.83833 10.2454L5.72395 10.5656L5.72394 10.5656L5.07694 12.3769L5.07393 12.3853L5.07122 12.3938C5.05605 12.4417 5.0322 12.4705 5.01415 12.485C4.99686 12.4989 4.98599 12.4996 4.98245 12.4996H4.83883C4.79499 12.4996 4.73111 12.4996 4.6574 12.4996C4.69435 12.392 4.72719 12.2947 4.74775 12.2304L5.81436 9.13658C5.81443 9.13639 5.81449 9.13621 5.81456 9.13603C5.8198 9.1212 5.8246 9.10761 5.82911 9.09496H7.71765H9.44483C10.087 9.09496 10.6256 8.72464 10.8133 8.13683C10.821 8.11313 10.8289 8.08657 10.8361 8.05774C10.8359 8.05833 10.8358 8.05891 10.8356 8.0595L11.2965 7.84077Z" fill="black" stroke="black"/>
<mask id="path-4-inside-1_2266_6419" fill="white">
<path d="M14.0095 6.08239C13.9255 6.03012 13.8288 6 13.7239 6H13.573C13.3202 6 13.0942 6.18172 13.0077 6.45453C12.9824 6.53374 12.9706 6.61386 12.9707 6.69196C12.9707 6.81895 13.0019 6.94088 13.0572 7.04599C13.1172 7.16 13.2051 7.25408 13.312 7.31316C13.39 7.3564 13.4782 7.38126 13.573 7.38126H13.7239C13.977 7.38126 14.203 7.19954 14.2896 6.92679C14.3145 6.84778 14.3263 6.76799 14.3263 6.69014C14.3263 6.43545 14.2013 6.20139 14.0095 6.08252L14.0095 6.08239Z"/>
</mask>
<path d="M14.0095 6.08239C13.9255 6.03012 13.8288 6 13.7239 6H13.573C13.3202 6 13.0942 6.18172 13.0077 6.45453C12.9824 6.53374 12.9706 6.61386 12.9707 6.69196C12.9707 6.81895 13.0019 6.94088 13.0572 7.04599C13.1172 7.16 13.2051 7.25408 13.312 7.31316C13.39 7.3564 13.4782 7.38126 13.573 7.38126H13.7239C13.977 7.38126 14.203 7.19954 14.2896 6.92679C14.3145 6.84778 14.3263 6.76799 14.3263 6.69014C14.3263 6.43545 14.2013 6.20139 14.0095 6.08252L14.0095 6.08239Z" fill="black"/>
<path d="M14.0095 6.08239L14.926 5.68257L14.8018 5.39765L14.5379 5.23339L14.0095 6.08239ZM13.0077 6.45453L13.9605 6.75812L13.9608 6.75702L13.0077 6.45453ZM12.9707 6.69196H13.9707L13.9707 6.69124L12.9707 6.69196ZM13.0572 7.04599L12.1719 7.51112L12.1724 7.51195L13.0572 7.04599ZM13.312 7.31316L13.7967 6.43847L13.7957 6.43795L13.312 7.31316ZM14.2896 6.92679L15.2427 7.22934L15.2433 7.22734L14.2896 6.92679ZM14.0095 6.08252L13.0929 6.48234L13.2176 6.76823L13.4828 6.93253L14.0095 6.08252ZM14.5379 5.23339C14.3047 5.08828 14.0263 5 13.7239 5V7C13.6312 7 13.5463 6.97197 13.4811 6.93138L14.5379 5.23339ZM13.7239 5H13.573V7H13.7239V5ZM13.573 5C12.8117 5 12.2495 5.5377 12.0545 6.15205L13.9608 6.75702C13.939 6.82575 13.8287 7 13.573 7V5ZM12.0549 6.15095C11.9976 6.33062 11.9706 6.51352 11.9707 6.69269L13.9707 6.69124C13.9707 6.7142 13.9672 6.73686 13.9605 6.75812L12.0549 6.15095ZM11.9707 6.69196C11.9707 6.98174 12.0417 7.26321 12.1719 7.51112L13.9424 6.58087C13.9622 6.61856 13.9707 6.65617 13.9707 6.69196H11.9707ZM12.1724 7.51195C12.3125 7.77803 12.5313 8.02427 12.8282 8.18837L13.7957 6.43795C13.8788 6.48388 13.9219 6.54197 13.942 6.58004L12.1724 7.51195ZM12.8273 8.18785C13.0449 8.30842 13.2989 8.38126 13.573 8.38126V6.38126C13.6575 6.38126 13.7351 6.40437 13.7967 6.43847L12.8273 8.18785ZM13.573 8.38126H13.7239V6.38126H13.573V8.38126ZM13.7239 8.38126C14.4852 8.38126 15.0476 7.84398 15.2427 7.22934L13.3364 6.62424C13.3584 6.5551 13.4689 6.38126 13.7239 6.38126V8.38126ZM15.2433 7.22734C15.299 7.05058 15.3263 6.86941 15.3263 6.69014H13.3263C13.3263 6.66656 13.3299 6.64498 13.3358 6.62625L15.2433 7.22734ZM15.3263 6.69014C15.3263 6.12785 15.0537 5.55314 14.5363 5.2325L13.4828 6.93253C13.4122 6.88879 13.3738 6.83705 13.3544 6.80009C13.3345 6.76229 13.3263 6.72506 13.3263 6.69014H15.3263ZM14.9261 5.6827L14.926 5.68257L13.0929 6.48221L13.0929 6.48234L14.9261 5.6827Z" fill="black" mask="url(#path-4-inside-1_2266_6419)"/>
</svg>
