<svg width="20" height="12" viewBox="0 0 20 12" fill="none" xmlns="http://www.w3.org/2000/svg">
<path d="M17.7336 3.39073C17.3628 3.39073 17.0115 3.50901 16.7213 3.71704C16.4311 3.92443 16.2021 4.22104 16.075 4.57769L14.134 9.62022C14.1321 9.62513 14.1304 9.63015 14.1286 9.63507L14.1279 9.63571L13.8632 10.3242C13.822 10.4398 13.8027 10.5566 13.8027 10.6705C13.8027 11.2048 14.2258 11.6771 14.7901 11.6771C15.5322 11.6771 16.195 11.2028 16.4488 10.4902L18.3364 5.58579C18.3364 5.58579 18.3364 5.58568 18.3364 5.58558L18.6605 4.74352C18.7015 4.62791 18.7208 4.51113 18.7207 4.39723C18.7205 3.86299 18.2978 3.39062 17.7335 3.39062L17.7336 3.39073Z" fill="black"/>
<path d="M15.0943 3.4342C15.2316 3.04838 15.2995 2.6867 15.2996 2.35484C15.3 1.01241 14.1909 0.15625 12.0708 0.15625H5.87038C5.60267 0.15625 5.34331 0.255297 5.14103 0.434906C4.87509 0.671465 4.75633 0.979825 4.75633 1.28316C4.75633 1.86516 5.19434 2.42931 5.87038 2.42931H11.5049C12.1598 2.42931 12.507 2.67185 12.5069 3.08417C12.5069 3.16399 12.4939 3.2501 12.4675 3.34199C12.4603 3.36796 12.4517 3.39403 12.4421 3.42063C12.2277 4.02122 11.6109 4.42681 10.7931 4.42681H7.60235H3.88272C3.45861 4.42681 3.3939 4.59402 3.21452 5.04598L1.23898 10.1506C1.14688 10.4088 0.890658 11.0608 0.747651 11.4237C0.738556 11.4467 0.734375 11.4702 0.734375 11.4931C0.734584 11.5899 0.811001 11.6763 0.914283 11.6763C1.30327 11.6756 2.00774 11.6756 2.28403 11.6756H2.54935C3.01642 11.6756 3.43384 11.3765 3.59378 10.9276L4.78905 7.94676L5.00534 7.4074C5.16466 6.95854 5.5827 6.65948 6.04977 6.65948H9.74338C12.4004 6.65948 14.4063 5.36663 15.0944 3.43409L15.0943 3.4342Z" fill="black"/>
<path d="M19.2256 0.291839C19.0705 0.205827 18.8918 0.15625 18.698 0.15625H18.4193C17.9523 0.15625 17.5348 0.455314 17.3749 0.904284C17.3283 1.03464 17.3065 1.16649 17.3066 1.29502C17.3066 1.50401 17.3643 1.70467 17.4664 1.87766C17.5773 2.06528 17.7396 2.2201 17.9371 2.31733C18.0813 2.38849 18.2442 2.42941 18.4193 2.42941H18.698C19.1657 2.42941 19.5831 2.13035 19.7431 1.68149C19.7891 1.55145 19.8109 1.42014 19.8109 1.29203C19.8109 0.872871 19.5801 0.487689 19.2257 0.292052L19.2256 0.291839Z" fill="black"/>
</svg>
